<?xml version="1.0" encoding="UTF-8" standalone="no"?>
<svg width="69px" height="70px" viewBox="0 0 69 70" version="1.1" xmlns="http://www.w3.org/2000/svg" xmlns:xlink="http://www.w3.org/1999/xlink">
    <!-- Generator: Sketch 41.1 (35376) - http://www.bohemiancoding.com/sketch -->
    <title>Group Copy</title>
    <desc>Created with Sketch.</desc>
    <defs></defs>
    <g id="Page-1" stroke="none" stroke-width="1" fill="none" fill-rule="evenodd">
        <g id="Desktop-HD" transform="translate(-257.000000, -94.000000)">
            <g id="Group" transform="translate(249.000000, 84.000000)">
                <g id="Group-Copy" transform="translate(41.789198, 45.500000) rotate(-13.000000) translate(-41.789198, -45.500000) translate(7.789198, 7.000000)">
                    <path d="M43.3310048,35.7969972 C51.2098815,31.5937005 56.4487979,24.136717 56.4487979,15.6382202 C56.4487979,8.41131953 52.6603492,1.93757454 46.6816434,-2.42266967 C45.8036688,1.04764957 44.7813514,6.06486399 37.8224115,12.5351282 C30.6983063,21.276181 34.9418387,30.7637645 43.3310048,35.7969972 Z" id="Combined-Shape" fill="#88E51A" transform="translate(45.329319, 16.687164) rotate(-74.000000) translate(-45.329319, -16.687164) "></path>
                    <path d="M36.2282319,79.7124015 C41.7848261,76.7480178 45.4795828,71.4889647 45.4795828,65.4953821 C45.4795828,60.3985953 42.8077715,55.8329732 38.5912767,52.7579019 C37.9720833,55.2053518 37.2510919,58.7437527 32.343285,63.30692 C27.318995,69.4715657 30.3117551,76.1627037 36.2282319,79.7124015 Z" id="Combined-Shape-Copy" fill="#B200EB" transform="translate(37.637547, 66.235152) rotate(81.000000) translate(-37.637547, -66.235152) "></path>
                    <ellipse id="Oval-2" fill="#FB0404" cx="18.649066" cy="38.0293321" rx="18.649066" ry="18.5672674"></ellipse>
                    <ellipse id="Oval-2-Copy" fill="#FB8F04" cx="56.9350572" cy="47.870274" rx="10.1015774" ry="10.0572698"></ellipse>
                </g>
            </g>
        </g>
    </g>
</svg>