<?xml version="1.0" encoding="UTF-8" standalone="no"?>
<svg width="49px" height="43px" viewBox="0 0 49 43" version="1.1" xmlns="http://www.w3.org/2000/svg" xmlns:xlink="http://www.w3.org/1999/xlink">
    <!-- Generator: Sketch 41.1 (35376) - http://www.bohemiancoding.com/sketch -->
    <title>pawprint</title>
    <desc>Created with Sketch.</desc>
    <defs></defs>
    <g id="Page-1" stroke="none" stroke-width="1" fill="none" fill-rule="evenodd">
        <g id="iPhone-7-Copy" transform="translate(-77.000000, -426.000000)" fill="#FFFFFF">
            <g id="pawprint" transform="translate(77.000000, 426.000000)">
                <g id="Group">
                    <path d="M32.7032316,22.9734758 C30.5026194,19.5237427 26.7547134,17.4638759 22.6773499,17.4638759 C18.6003594,17.4638759 14.8520803,19.5237427 12.6518412,22.9734758 L7.34917913,31.2860543 C6.46938203,32.6654227 6.06343661,34.2585013 6.174997,35.8928223 C6.2865573,37.5275181 6.90554946,39.0497349 7.96481332,40.2956282 C9.02482334,41.5411464 10.4254843,42.3922381 12.0153128,42.7574201 C13.6051413,43.1222273 15.2348928,42.9666312 16.7280854,42.3071289 L16.8254676,42.263637 C20.5830745,40.6360648 24.877962,40.6506871 28.6262412,42.3071289 C29.5929733,42.7341745 30.6171647,42.9501343 31.6506838,42.9501343 C32.2125899,42.9501343 32.7778539,42.8860212 33.3378945,42.757795 C34.927723,42.3929879 36.3283839,41.5418963 37.3887671,40.296378 C38.448404,39.0508597 39.0677692,37.528268 39.1797027,35.8935722 C39.2916362,34.2585013 38.8856908,32.6654227 38.0058937,31.2856794 L32.7032316,22.9734758 Z M35.2101684,38.4239764 C33.86137,40.0084315 31.6794133,40.5093384 29.7802753,39.6702445 C27.5229502,38.6725551 25.0999635,38.1738979 22.6762305,38.1738979 C20.2547363,38.1738979 17.8321226,38.6721802 15.5762899,39.6687448 L15.5121147,39.6972395 C13.627528,40.4980905 11.4776589,39.9908099 10.1437851,38.4239764 C8.79647904,36.8391462 8.64313015,34.5955636 9.76246495,32.8405152 L15.0655001,24.5279367 C16.7362939,21.9086739 19.5816429,20.3448399 22.6773499,20.3448399 C25.7730568,20.3448399 28.618779,21.9086739 30.2899458,24.5279367 L35.5922347,32.8401403 C36.7119426,34.5959385 36.5582207,36.839896 35.2101684,38.4239764 Z" id="Shape"></path>
                    <path d="M8.77745033,22.9626029 C10.3549662,22.3537161 11.5534006,21.0763289 12.1522447,19.3655221 C12.7216131,17.737575 12.6749741,15.8996669 12.0201633,14.189985 C11.3649793,12.4814278 10.1732608,11.0866873 8.66477067,10.2622158 C7.07941952,9.39650186 5.33810766,9.25552809 3.76320363,9.86553953 C0.59473984,11.0896868 -0.859276035,15.0242048 0.522356238,18.6381575 C1.62602039,21.5146223 4.20011724,23.3304094 6.80257066,23.3304094 C7.4670824,23.3304094 8.13345976,23.2119315 8.77745033,22.9626029 Z M3.19756635,17.60335 C2.38343689,15.4737462 3.0986918,13.2084176 4.79299164,12.5537894 C5.09894306,12.4353115 5.42243084,12.3764474 5.75263458,12.3764474 C6.26230507,12.3764474 6.78876556,12.5162964 7.29545106,12.7933698 C8.20658963,13.2909023 8.93453029,14.1547415 9.34495314,15.2251674 C9.75500272,16.2963431 9.7915677,17.4271327 9.44755876,18.409825 C9.13227948,19.3104074 8.52895805,19.9725342 7.74915476,20.2736031 L7.74766232,20.2743531 C6.05560129,20.9297311 4.01430771,19.7310791 3.19756635,17.60335 Z" id="Shape"></path>
                    <path d="M19.0663758,16.4500645 C23.0273285,16.4500645 26.2498933,12.7607509 26.2498933,8.22596959 C26.2498933,3.69006343 23.0273285,0 19.0663758,0 C15.1057962,0 11.8836044,3.69006343 11.8836044,8.22596959 C11.8836044,12.7607509 15.1057962,16.4500645 19.0663758,16.4500645 Z M19.0663758,2.8805891 C21.4464547,2.8805891 23.383277,5.27864295 23.383277,8.22596959 C23.383277,11.1721715 21.4464547,13.5694754 19.0663758,13.5694754 C16.6862969,13.5694754 14.7502208,11.1721715 14.7502208,8.22596959 C14.7502208,5.27864295 16.6862969,2.8805891 19.0663758,2.8805891 Z" id="Shape"></path>
                    <path d="M31.4723365,18.4705636 L31.4727096,18.4705636 C32.0820008,18.6737759 32.7036047,18.7708827 33.3225969,18.7708827 C36.2112269,18.7708827 39.0263538,16.6581509 40.1005422,13.4112548 C40.7191612,11.5422276 40.678492,9.56597024 39.9859969,7.84691508 C39.2614142,6.04762481 37.9185855,4.74136793 36.2045108,4.16847452 C34.4904362,3.59633092 32.6356984,3.83478655 30.9831871,4.84034952 C29.4045519,5.80129567 28.1949242,7.35950577 27.5774245,9.22853311 C26.2733994,13.1712995 28.020681,17.3172782 31.4723365,18.4705636 L31.4723365,18.4705636 Z M30.2977812,10.136989 C30.7011148,8.91659115 31.4719634,7.91102818 32.4685444,7.304391 C33.3905032,6.74312044 34.396412,6.60027204 35.3004615,6.90209087 C36.2041377,7.20428469 36.9242431,7.92340085 37.3286961,8.9274641 C37.7656097,10.0125122 37.7842654,11.282026 37.3801855,12.5024239 C36.5746375,14.9379708 34.3299981,16.3889509 32.376759,15.7369472 C30.4250122,15.0845685 29.4922332,12.5725359 30.2977812,10.136989 Z" id="Shape"></path>
                    <path d="M46.6001462,17.5107422 L46.5990268,17.5096174 C43.8674769,15.4819946 39.782278,16.3608311 37.4917459,19.4697527 C35.2034524,22.580174 35.5612665,26.761771 38.2887122,28.7908936 C39.2834278,29.5313808 40.4587293,29.8853149 41.6616411,29.8853149 C43.7581552,29.8853149 45.9393655,28.810015 47.3971126,26.8326329 C49.685406,23.7222116 49.3279651,19.5406146 46.6001462,17.5107422 L46.6001462,17.5107422 Z M45.0931484,25.1188267 C43.7406189,26.9533604 41.4538179,27.5618722 39.9945785,26.4756993 C38.5364583,25.391026 38.4476578,23.0162179 39.7964562,21.182809 C40.6930434,19.9657854 42.0026651,19.2886615 43.2096811,19.2886615 C43.8200917,19.2886615 44.4043845,19.4618792 44.8953993,19.8266863 C46.3524001,20.9124843 46.4408275,23.2865426 45.0931484,25.1188267 L45.0931484,25.1188267 Z" id="Shape"></path>
                </g>
            </g>
        </g>
    </g>
</svg>