<?xml version="1.0" encoding="UTF-8" standalone="no"?>
<svg width="39px" height="52px" viewBox="0 0 39 52" version="1.1" xmlns="http://www.w3.org/2000/svg" xmlns:xlink="http://www.w3.org/1999/xlink">
    <!-- Generator: Sketch 41.1 (35376) - http://www.bohemiancoding.com/sketch -->
    <title>street-lamp</title>
    <desc>Created with Sketch.</desc>
    <defs>
        <path d="M16.9338947,1.66666667 C22.0472632,1.67260417 26.1910526,5.77322917 26.1970526,10.8333333 L26.1970526,14.1666667 C26.1995789,14.1827083 26.2029474,14.1985417 26.2071579,14.2141667 C22.3698947,14.638125 19.4658947,17.8457292 19.4602105,21.6666667 C19.4602105,22.126875 19.8372632,22.5 20.3023158,22.5 L22.9128421,22.5 C23.3755789,24.7552083 25.5981053,26.2120833 27.8770526,25.7541667 C29.534,25.42125 30.8290526,24.1396875 31.1654737,22.5 L33.776,22.5 C34.2410526,22.5 34.6181053,22.126875 34.6181053,21.6666667 C34.6124211,17.8457292 31.7084211,14.638125 27.8711579,14.2141667 C27.8753684,14.1985417 27.8787368,14.1827083 27.8812632,14.1666667 L27.8812632,10.8333333 C27.8812632,4.85020833 22.98,0 16.9338947,0 C10.8877895,0 5.98652632,4.85020833 5.98652632,10.8333333 L5.98652632,45.8333333 L0.933894737,45.8333333 C0.468842105,45.8333333 0.0917894737,46.2064583 0.0917894737,46.6666667 L0.0917894737,49.1666667 C0.0917894737,49.626875 0.468842105,50 0.933894737,50 L12.7233684,50 C13.1884211,50 13.5654737,49.626875 13.5654737,49.1666667 L13.5654737,46.6666667 C13.5654737,46.2064583 13.1884211,45.8333333 12.7233684,45.8333333 L7.67073684,45.8333333 L7.67073684,10.8333333 C7.67673684,5.77322917 11.8205263,1.67260417 16.9338947,1.66666667 Z M27.0391579,24.1666667 C25.9688421,24.1654167 25.0150526,23.498125 24.6568421,22.5 L29.4214737,22.5 C29.0632632,23.498125 28.1094737,24.1654167 27.0391579,24.1666667 Z M27.8766316,15.8879167 C30.4671579,16.2558333 32.5023158,18.2698958 32.8741053,20.8333333 L21.2042105,20.8333333 C21.6667368,17.644375 24.654,15.4302083 27.8766316,15.8879167 Z M11.8812632,47.5 L11.8812632,48.3333333 L1.776,48.3333333 L1.776,47.5 L11.8812632,47.5 Z" id="path-1"></path>
        <mask id="mask-2" maskContentUnits="userSpaceOnUse" maskUnits="objectBoundingBox" x="-1" y="-1" width="36.5263158" height="52">
            <rect x="-0.908210526" y="-1" width="36.5263158" height="52" fill="white"></rect>
            <use xlink:href="#path-1" fill="black"></use>
        </mask>
    </defs>
    <g id="Page-1" stroke="none" stroke-width="1" fill="none" fill-rule="evenodd">
        <g id="iPhone-7-Copy" transform="translate(-269.000000, -425.000000)">
            <g id="street-lamp" transform="translate(270.000000, 426.000000)">
                <g id="Capa_1">
                    <g id="Group">
                        <g id="Shape">
                            <use fill="#FFFFFF" fill-rule="evenodd" xlink:href="#path-1"></use>
                            <use stroke="#FFFFFF" mask="url(#mask-2)" stroke-width="2" xlink:href="#path-1"></use>
                        </g>
                        <path d="M27.0391579,29.6666667 C26.5741053,29.6666667 26.1970526,30.0397917 26.1970526,30.5 L26.1970526,33.8333333 C26.1970526,34.2935417 26.5741053,34.6666667 27.0391579,34.6666667 C27.5042105,34.6666667 27.8812632,34.2935417 27.8812632,33.8333333 L27.8812632,30.5 C27.8812632,30.0397917 27.5042105,29.6666667 27.0391579,29.6666667 Z" id="Shape" fill="#FFFFFF"></path>
                        <path d="M33.4,31.1883333 L31.7157895,28.3016667 C31.486,27.9015625 30.9718947,27.7615625 30.5675789,27.9889583 C30.1632632,28.2163542 30.0217895,28.7251042 30.2515789,29.1252083 C30.2534737,29.1284375 30.2553684,29.1316667 30.2572632,29.1348958 L31.9414737,32.0215625 C32.1712632,32.4216667 32.6853684,32.5616667 33.0896842,32.3342708 C33.494,32.106875 33.6354737,31.598125 33.4056842,31.1980208 C33.4037895,31.1947917 33.4018947,31.1915625 33.4,31.1883333 Z" id="Shape" fill="#FFFFFF"></path>
                        <path d="M37.4918947,27.5339583 L37.4821053,27.5283333 L34.5650526,25.8616667 C34.1638947,25.6288542 33.6478947,25.7619792 33.4126316,26.1589583 C33.1773684,26.5559375 33.3118947,27.0665625 33.7130526,27.299375 C33.7163158,27.30125 33.7195789,27.303125 33.7228421,27.305 L36.6398947,28.9716667 C37.0410526,29.2044792 37.5570526,29.0713542 37.7923158,28.674375 C38.0276842,28.2772917 37.8931579,27.7667708 37.4918947,27.5339583 Z" id="Shape" fill="#FFFFFF"></path>
                        <path d="M20.6602105,25.1666667 C20.4276842,24.768125 19.9126316,24.6315625 19.5098947,24.8616667 L16.5928421,26.5283333 C16.1885263,26.7557292 16.0470526,27.2644792 16.2768421,27.6645833 C16.5066316,28.0646875 17.0207368,28.2046875 17.4250526,27.9772917 C17.4283158,27.9754167 17.4315789,27.9735417 17.4348421,27.9716667 L20.3518947,26.305 C20.7547368,26.0748958 20.8927368,25.5652083 20.6602105,25.1666667 Z" id="Shape" fill="#FFFFFF"></path>
                        <path d="M23.5128421,28 C23.1101053,27.7698958 22.5950526,27.9064583 22.3625263,28.305 L20.6783158,31.1916667 C20.4430526,31.5886458 20.5775789,32.0992708 20.9787368,32.3320833 C21.3798947,32.5648958 21.8958947,32.4317708 22.1311579,32.0347917 C22.1330526,32.0315625 22.1349474,32.0283333 22.1368421,32.0251042 L23.8210526,29.1384375 C24.0535789,28.7397917 23.9155789,28.2301042 23.5128421,28 Z" id="Shape" fill="#FFFFFF"></path>
                    </g>
                </g>
            </g>
        </g>
    </g>
</svg>