<?xml version="1.0" encoding="UTF-8" standalone="no"?>
<svg width="17px" height="11px" viewBox="0 0 17 11" version="1.1" xmlns="http://www.w3.org/2000/svg" xmlns:xlink="http://www.w3.org/1999/xlink">
    <!-- Generator: Sketch 41.1 (35376) - http://www.bohemiancoding.com/sketch -->
    <title>Group</title>
    <desc>Created with Sketch.</desc>
    <defs></defs>
    <g id="Page-1" stroke="none" stroke-width="1" fill="none" fill-rule="evenodd">
        <g id="iPhone-7-Copy-2" transform="translate(-273.000000, -531.000000)" fill="#3B3759">
            <g id="security" transform="translate(248.000000, 531.000000)">
                <g id="Capa_1">
                    <g id="Group" transform="translate(25.000000, 0.000000)">
                        <path d="M9.42158787,0.975580915 L4.24288598,6.87107599 L2.03300703,4.35518483 C1.61397839,3.87829421 0.934576875,3.87829421 0.515691294,4.35518483 C0.0966626512,4.83240119 0.0966626512,5.60571971 0.515691294,6.0827732 L3.48422811,9.46237711 C3.6936709,9.70082242 3.96834997,9.82004507 4.24288598,9.82004507 C4.51742199,9.82004507 4.79210106,9.70082242 5.00154385,9.46237711 L10.9387605,2.70316929 C11.3579323,2.2261158 11.3579323,1.4526344 10.9389036,0.975743787 C10.520018,0.4986903 9.84061652,0.498527427 9.42158787,0.975580915 Z" id="Shape"></path>
                        <path d="M14.3696039,1.55042495 L9.19090196,7.44592003 L8.87533538,7.10265665 L7.35801964,8.83024502 L8.43224409,10.0372212 C8.64168688,10.2756665 8.91636595,10.3948891 9.19090196,10.3948891 C9.46543797,10.3948891 9.74011704,10.2756665 9.94955983,10.0372212 L15.8867765,3.27801333 C16.3059482,2.80095984 16.3059482,2.02747844 15.8869196,1.55058783 C15.468034,1.07353434 14.7886325,1.07337147 14.3696039,1.55042495 Z" id="Shape-Copy"></path>
                    </g>
                </g>
            </g>
        </g>
    </g>
</svg>